<?xml version="1.0" encoding="UTF-8" standalone="no"?>
<!DOCTYPE svg PUBLIC "-//W3C//DTD SVG 1.1//EN"
 "http://www.w3.org/Graphics/SVG/1.1/DTD/svg11.dtd">
<!-- Generated by graphviz version 2.43.0 (0)
 -->
<!-- Title: my_graph Pages: 1 -->
<svg width="678pt" height="692pt"
 viewBox="0.00 0.00 677.74 692.00" xmlns="http://www.w3.org/2000/svg" xmlns:xlink="http://www.w3.org/1999/xlink">
<g id="graph0" class="graph" transform="scale(1 1) rotate(0) translate(4 688)">
<title>my_graph</title>
<polygon fill="white" stroke="transparent" points="-4,4 -4,-688 673.74,-688 673.74,4 -4,4"/>
<!-- 0 -->
<g id="node1" class="node">
<title>0</title>
<ellipse fill="none" stroke="black" cx="75.39" cy="-666" rx="48.19" ry="18"/>
<text text-anchor="middle" x="75.39" y="-662.3" font-family="Times,serif" font-size="14.00">「言語の</text>
</g>
<!-- 1 -->
<g id="node2" class="node">
<title>1</title>
<ellipse fill="none" stroke="black" cx="75.39" cy="-594" rx="38.19" ry="18"/>
<text text-anchor="middle" x="75.39" y="-590.3" font-family="Times,serif" font-size="14.00">理解や</text>
</g>
<!-- 0&#45;&gt;1 -->
<g id="edge1" class="edge">
<title>0&#45;&gt;1</title>
<path fill="none" stroke="black" d="M75.39,-647.7C75.39,-639.98 75.39,-630.71 75.39,-622.11"/>
<polygon fill="black" stroke="black" points="78.89,-622.1 75.39,-612.1 71.89,-622.1 78.89,-622.1"/>
</g>
<!-- 2 -->
<g id="node3" class="node">
<title>2</title>
<ellipse fill="none" stroke="black" cx="75.39" cy="-522" rx="38.19" ry="18"/>
<text text-anchor="middle" x="75.39" y="-518.3" font-family="Times,serif" font-size="14.00">推論、</text>
</g>
<!-- 1&#45;&gt;2 -->
<g id="edge2" class="edge">
<title>1&#45;&gt;2</title>
<path fill="none" stroke="black" d="M75.39,-575.7C75.39,-567.98 75.39,-558.71 75.39,-550.11"/>
<polygon fill="black" stroke="black" points="78.89,-550.1 75.39,-540.1 71.89,-550.1 78.89,-550.1"/>
</g>
<!-- 3 -->
<g id="node4" class="node">
<title>3</title>
<ellipse fill="none" stroke="black" cx="75.39" cy="-450" rx="75.29" ry="18"/>
<text text-anchor="middle" x="75.39" y="-446.3" font-family="Times,serif" font-size="14.00">問題解決などの</text>
</g>
<!-- 2&#45;&gt;3 -->
<g id="edge3" class="edge">
<title>2&#45;&gt;3</title>
<path fill="none" stroke="black" d="M75.39,-503.7C75.39,-495.98 75.39,-486.71 75.39,-478.11"/>
<polygon fill="black" stroke="black" points="78.89,-478.1 75.39,-468.1 71.89,-478.1 78.89,-478.1"/>
</g>
<!-- 4 -->
<g id="node5" class="node">
<title>4</title>
<ellipse fill="none" stroke="black" cx="75.39" cy="-378" rx="57.39" ry="18"/>
<text text-anchor="middle" x="75.39" y="-374.3" font-family="Times,serif" font-size="14.00">知的行動を</text>
</g>
<!-- 3&#45;&gt;4 -->
<g id="edge4" class="edge">
<title>3&#45;&gt;4</title>
<path fill="none" stroke="black" d="M75.39,-431.7C75.39,-423.98 75.39,-414.71 75.39,-406.11"/>
<polygon fill="black" stroke="black" points="78.89,-406.1 75.39,-396.1 71.89,-406.1 78.89,-406.1"/>
</g>
<!-- 6 -->
<g id="node7" class="node">
<title>6</title>
<ellipse fill="none" stroke="black" cx="132.39" cy="-306" rx="48.19" ry="18"/>
<text text-anchor="middle" x="132.39" y="-302.3" font-family="Times,serif" font-size="14.00">代わって</text>
</g>
<!-- 4&#45;&gt;6 -->
<g id="edge5" class="edge">
<title>4&#45;&gt;6</title>
<path fill="none" stroke="black" d="M88.9,-360.41C95.93,-351.78 104.66,-341.06 112.45,-331.5"/>
<polygon fill="black" stroke="black" points="115.38,-333.43 118.98,-323.47 109.95,-329.01 115.38,-333.43"/>
</g>
<!-- 5 -->
<g id="node6" class="node">
<title>5</title>
<ellipse fill="none" stroke="black" cx="189.39" cy="-378" rx="38.19" ry="18"/>
<text text-anchor="middle" x="189.39" y="-374.3" font-family="Times,serif" font-size="14.00">人間に</text>
</g>
<!-- 5&#45;&gt;6 -->
<g id="edge6" class="edge">
<title>5&#45;&gt;6</title>
<path fill="none" stroke="black" d="M176.17,-360.76C169.08,-352.06 160.2,-341.15 152.29,-331.43"/>
<polygon fill="black" stroke="black" points="154.97,-329.18 145.94,-323.63 149.54,-333.6 154.97,-329.18"/>
</g>
<!-- 8 -->
<g id="node9" class="node">
<title>8</title>
<ellipse fill="none" stroke="black" cx="283.39" cy="-234" rx="48.19" ry="18"/>
<text text-anchor="middle" x="283.39" y="-230.3" font-family="Times,serif" font-size="14.00">行わせる</text>
</g>
<!-- 6&#45;&gt;8 -->
<g id="edge7" class="edge">
<title>6&#45;&gt;8</title>
<path fill="none" stroke="black" d="M161.51,-291.5C185.32,-280.46 219.19,-264.76 245.18,-252.71"/>
<polygon fill="black" stroke="black" points="246.77,-255.84 254.37,-248.46 243.82,-249.49 246.77,-255.84"/>
</g>
<!-- 7 -->
<g id="node8" class="node">
<title>7</title>
<ellipse fill="none" stroke="black" cx="283.39" cy="-306" rx="85.29" ry="18"/>
<text text-anchor="middle" x="283.39" y="-302.3" font-family="Times,serif" font-size="14.00">コンピューターに</text>
</g>
<!-- 7&#45;&gt;8 -->
<g id="edge8" class="edge">
<title>7&#45;&gt;8</title>
<path fill="none" stroke="black" d="M283.39,-287.7C283.39,-279.98 283.39,-270.71 283.39,-262.11"/>
<polygon fill="black" stroke="black" points="286.89,-262.1 283.39,-252.1 279.89,-262.1 286.89,-262.1"/>
</g>
<!-- 9 -->
<g id="node10" class="node">
<title>9</title>
<ellipse fill="none" stroke="black" cx="297.39" cy="-162" rx="85.29" ry="18"/>
<text text-anchor="middle" x="297.39" y="-158.3" font-family="Times,serif" font-size="14.00">技術」、または、</text>
</g>
<!-- 8&#45;&gt;9 -->
<g id="edge9" class="edge">
<title>8&#45;&gt;9</title>
<path fill="none" stroke="black" d="M286.85,-215.7C288.4,-207.98 290.25,-198.71 291.97,-190.11"/>
<polygon fill="black" stroke="black" points="295.44,-190.6 293.97,-180.1 288.58,-189.22 295.44,-190.6"/>
</g>
<!-- 18 -->
<g id="node19" class="node">
<title>18</title>
<ellipse fill="none" stroke="black" cx="367.39" cy="-90" rx="75.29" ry="18"/>
<text text-anchor="middle" x="367.39" y="-86.3" font-family="Times,serif" font-size="14.00">研究分野」とも</text>
</g>
<!-- 9&#45;&gt;18 -->
<g id="edge10" class="edge">
<title>9&#45;&gt;18</title>
<path fill="none" stroke="black" d="M314.34,-144.05C323.02,-135.37 333.75,-124.64 343.28,-115.11"/>
<polygon fill="black" stroke="black" points="346.01,-117.33 350.6,-107.79 341.06,-112.39 346.01,-117.33"/>
</g>
<!-- 10 -->
<g id="node11" class="node">
<title>10</title>
<ellipse fill="none" stroke="black" cx="437.39" cy="-522" rx="48.19" ry="18"/>
<text text-anchor="middle" x="437.39" y="-518.3" font-family="Times,serif" font-size="14.00">「計算機</text>
</g>
<!-- 11 -->
<g id="node12" class="node">
<title>11</title>
<ellipse fill="none" stroke="black" cx="437.39" cy="-450" rx="94.48" ry="18"/>
<text text-anchor="middle" x="437.39" y="-446.3" font-family="Times,serif" font-size="14.00">（コンピュータ）に</text>
</g>
<!-- 10&#45;&gt;11 -->
<g id="edge11" class="edge">
<title>10&#45;&gt;11</title>
<path fill="none" stroke="black" d="M437.39,-503.7C437.39,-495.98 437.39,-486.71 437.39,-478.11"/>
<polygon fill="black" stroke="black" points="440.89,-478.1 437.39,-468.1 433.89,-478.1 440.89,-478.1"/>
</g>
<!-- 12 -->
<g id="node13" class="node">
<title>12</title>
<ellipse fill="none" stroke="black" cx="437.39" cy="-378" rx="29.5" ry="18"/>
<text text-anchor="middle" x="437.39" y="-374.3" font-family="Times,serif" font-size="14.00">よる</text>
</g>
<!-- 11&#45;&gt;12 -->
<g id="edge12" class="edge">
<title>11&#45;&gt;12</title>
<path fill="none" stroke="black" d="M437.39,-431.7C437.39,-423.98 437.39,-414.71 437.39,-406.11"/>
<polygon fill="black" stroke="black" points="440.89,-406.1 437.39,-396.1 433.89,-406.1 440.89,-406.1"/>
</g>
<!-- 14 -->
<g id="node15" class="node">
<title>14</title>
<ellipse fill="none" stroke="black" cx="480.39" cy="-306" rx="94.48" ry="18"/>
<text text-anchor="middle" x="480.39" y="-302.3" font-family="Times,serif" font-size="14.00">情報処理システムの</text>
</g>
<!-- 12&#45;&gt;14 -->
<g id="edge13" class="edge">
<title>12&#45;&gt;14</title>
<path fill="none" stroke="black" d="M447.37,-360.76C452.48,-352.44 458.83,-342.1 464.59,-332.73"/>
<polygon fill="black" stroke="black" points="467.62,-334.48 469.87,-324.12 461.66,-330.81 467.62,-334.48"/>
</g>
<!-- 13 -->
<g id="node14" class="node">
<title>13</title>
<ellipse fill="none" stroke="black" cx="523.39" cy="-378" rx="38.19" ry="18"/>
<text text-anchor="middle" x="523.39" y="-374.3" font-family="Times,serif" font-size="14.00">知的な</text>
</g>
<!-- 13&#45;&gt;14 -->
<g id="edge14" class="edge">
<title>13&#45;&gt;14</title>
<path fill="none" stroke="black" d="M513.2,-360.41C508.08,-352.08 501.77,-341.8 496.05,-332.49"/>
<polygon fill="black" stroke="black" points="499.03,-330.65 490.81,-323.96 493.06,-334.31 499.03,-330.65"/>
</g>
<!-- 16 -->
<g id="node17" class="node">
<title>16</title>
<ellipse fill="none" stroke="black" cx="480.39" cy="-234" rx="38.19" ry="18"/>
<text text-anchor="middle" x="480.39" y="-230.3" font-family="Times,serif" font-size="14.00">実現に</text>
</g>
<!-- 14&#45;&gt;16 -->
<g id="edge15" class="edge">
<title>14&#45;&gt;16</title>
<path fill="none" stroke="black" d="M480.39,-287.7C480.39,-279.98 480.39,-270.71 480.39,-262.11"/>
<polygon fill="black" stroke="black" points="483.89,-262.1 480.39,-252.1 476.89,-262.1 483.89,-262.1"/>
</g>
<!-- 15 -->
<g id="node16" class="node">
<title>15</title>
<ellipse fill="none" stroke="black" cx="631.39" cy="-306" rx="38.19" ry="18"/>
<text text-anchor="middle" x="631.39" y="-302.3" font-family="Times,serif" font-size="14.00">設計や</text>
</g>
<!-- 15&#45;&gt;16 -->
<g id="edge16" class="edge">
<title>15&#45;&gt;16</title>
<path fill="none" stroke="black" d="M605.09,-292.81C580.37,-281.35 543.2,-264.12 515.87,-251.44"/>
<polygon fill="black" stroke="black" points="517.19,-248.2 506.65,-247.17 514.25,-254.55 517.19,-248.2"/>
</g>
<!-- 17 -->
<g id="node18" class="node">
<title>17</title>
<ellipse fill="none" stroke="black" cx="466.39" cy="-162" rx="38.19" ry="18"/>
<text text-anchor="middle" x="466.39" y="-158.3" font-family="Times,serif" font-size="14.00">関する</text>
</g>
<!-- 16&#45;&gt;17 -->
<g id="edge17" class="edge">
<title>16&#45;&gt;17</title>
<path fill="none" stroke="black" d="M477,-216.05C475.46,-208.35 473.6,-199.03 471.87,-190.36"/>
<polygon fill="black" stroke="black" points="475.24,-189.39 469.85,-180.28 468.38,-190.77 475.24,-189.39"/>
</g>
<!-- 17&#45;&gt;18 -->
<g id="edge18" class="edge">
<title>17&#45;&gt;18</title>
<path fill="none" stroke="black" d="M445.88,-146.5C432.21,-136.83 413.99,-123.95 398.55,-113.03"/>
<polygon fill="black" stroke="black" points="400.49,-110.11 390.3,-107.2 396.45,-115.83 400.49,-110.11"/>
</g>
<!-- 19 -->
<g id="node20" class="node">
<title>19</title>
<ellipse fill="none" stroke="black" cx="367.39" cy="-18" rx="48.19" ry="18"/>
<text text-anchor="middle" x="367.39" y="-14.3" font-family="Times,serif" font-size="14.00">される。</text>
</g>
<!-- 18&#45;&gt;19 -->
<g id="edge19" class="edge">
<title>18&#45;&gt;19</title>
<path fill="none" stroke="black" d="M367.39,-71.7C367.39,-63.98 367.39,-54.71 367.39,-46.11"/>
<polygon fill="black" stroke="black" points="370.89,-46.1 367.39,-36.1 363.89,-46.1 370.89,-46.1"/>
</g>
</g>
</svg>
